{"title":"Game.of.Thrones.S02E09.HDTV.XviD-Atilla82","uid":7306435,"size":368588917,"categoryP":"video","categoryS":"tv_shows","magnet":"?xt=urn:btih:75ae4c09ded244d020040b8010e5faf80286af1d&amp;dn=Game.of.Thrones.S02E09.HDTV.XviD-Atilla82&amp;tr=udp%3A%2F%2Ftracker.openbittorrent.com%3A80&amp;tr=udp%3A%2F%2Fopen.demonii.com%3A1337&amp;tr=udp%3A%2F%2Ftracker.coppersurfer.tk%3A6969&amp;tr=udp%3A%2F%2Fexodus.desync.com%3A6969","seeders":1,"leechers":1,"uploader":"Atilla82","files":3,"time":1338212249,"description":"Game.of.Thrones.S02E09.HDTV.XviD-Atilla82\n\n\n\nscreenshots included in torrent\n\n\nGame of Thrones (2012)\n &lt;a href=&quot;\nhttp://www.imdb.com/title/tt0944947/&quot; rel=&quot;nofollow&quot; target=&quot;_NEW&quot;&gt;\nhttp://www.imdb.com/title/tt0944947/&lt;/a&gt;\n \n\n\nSeven noble families fight for control of the mythical land of Westeros.\n\nlanguage: English\n\n\n\nGeneral\nComplete name : Game.of.Thrones.S02E09.HDTV.XviD-Atilla82.avi\nFormat : AVI\nFormat/Info : Audio Video Interleave\nFile size : 351 MiB\nDuration : 56mn 1s\nOverall bit rate : 877 Kbps\nWriting application : Lavf52.61.0\n\nVideo\nID : 0\nFormat : MPEG-4 Visual\nFormat profile : Advanced Simple@L5\nFormat settings, BVOP : No\nFormat settings, QPel : Yes\nFormat settings, GMC : No warppoints\nFormat settings, Matrix : Default (H.263)\nCodec ID : XVID\nCodec ID/Hint : XviD\nDuration : 56mn 0s\nBit rate : 736 Kbps\nWidth : 680 pixels\nHeight : 380 pixels\nDisplay aspect ratio : 16:9\nFrame rate : 23.976 fps\nColor space : YUV\nChroma subsampling : 4:2:0\nBit depth : 8 bits\nScan type : Progressive\nCompression mode : Lossy\nBits/(Pixel*Frame) : 0.119\nStream size : 295 MiB (84%)\nWriting library : XviD 64\n\nAudio\nID : 1\nFormat : MPEG Audio\nFormat version : Version 1\nFormat profile : Layer 3\nCodec ID : 55\nCodec ID/Hint : MP3\nDuration : 56mn 1s\nBit rate mode : Constant\nBit rate : 128 Kbps\nChannel(s) : 2 channels\nSampling rate : 48.0 KHz\nCompression mode : Lossy\nStream size : 51.3 MiB (15%)\nAlignment : Aligned on interleaves\nInterleave, duration : 24 ms (0.58 video frame)\n\n\nSCREENS &lt;a href=&quot;\nhttp://www.pohrani.com/f/5/Jh/4lOmvYoh/gameofthroness02e09hdtvx.jpg&quot; rel=&quot;nofollow&quot; target=&quot;_NEW&quot;&gt;\nhttp://www.pohrani.com/f/5/Jh/4lOmvYoh/gameofthroness02e09hdtvx.jpg&lt;/a&gt;\n\n","torrent":{"xt":"urn:btih:75ae4c09ded244d020040b8010e5faf80286af1d","amp;dn":"Game.of.Thrones.S02E09.HDTV.XviD-Atilla82","amp;tr":["udp%3A%2F%2Ftracker.openbittorrent.com%3A80","udp%3A%2F%2Fopen.demonii.com%3A1337","udp%3A%2F%2Ftracker.coppersurfer.tk%3A6969","udp%3A%2F%2Fexodus.desync.com%3A6969"],"infoHash":"75ae4c09ded244d020040b8010e5faf80286af1d","infoHashBuffer":{"type":"Buffer","data":[117,174,76,9,222,210,68,208,32,4,11,128,16,229,250,248,2,134,175,29]},"announce":[],"urlList":[]}}